# xmcd
#
# Track frame offsets:
#	150
#	18185
#	35927
#	64510
#	80992
#
# Disc length: 1351 seconds
#
# Revision: 1
# Processed by: cddbd v1.5PL3 Copyright (c) Steve Scherf et al.
# Submitted via: EasyCDDAExtractor 6.5.0.1
#
DISCID=3d054505
DTITLE=P.M. Dawn - The Ways Of The Wind
DYEAR=1900
DGENRE=
TTITLE0=The Ways Of The Wind(Radio Edit)
TTITLE1=The Ways Of The Wind(Acoustic Edit)
TTITLE2=The Ways Of The Wind(UK 12 Inch Remix)
TTITLE3=The Ways Of The Wind(UK 7 Inch Remix)
TTITLE4=The Ways Of The Wind(Album Version)
EXTD=
EXTT0=
EXTT1=
EXTT2=
EXTT3=
EXTT4=
PLAYORDER=
